<?xml version="1.0" encoding="iso-8859-1"?>
<!-- Generator: Adobe Illustrator 16.0.0, SVG Export Plug-In . SVG Version: 6.00 Build 0)  -->
<!DOCTYPE svg PUBLIC "-//W3C//DTD SVG 1.1//EN" "http://www.w3.org/Graphics/SVG/1.1/DTD/svg11.dtd">
<svg version="1.1" id="Capa_1" xmlns="http://www.w3.org/2000/svg" xmlns:xlink="http://www.w3.org/1999/xlink" x="0px" y="0px"
	 width="410.911px" height="410.91px" viewBox="0 0 410.911 410.91" style="enable-background:new 0 0 410.911 410.91;"
	 xml:space="preserve">
<g>
	<path d="M410.911,375.421v22.413H0V13.076h22.413v123.47c12.052-18.156,33.802-35.363,54.236-17.27
		c13.76,12.191,24.788,33.614,41.201,12.791c12.242-15.527,31.171-77.164,60.57-60.862c21.803,12.087,20.022,38.864,32.837,57.029
		c25.461,36.088,53.127-25.853,67.535-41.095c5.813-6.145,13.391-12.181,22.299-8.722c8.317,3.226,13.583,11.559,21.166,16.057
		c16.352,9.694,28.07,4.591,38.222-10.785c7.441-11.281,13.129-23.451,18.9-35.625c4.642-9.794,19.13-1.256,14.512,8.481
		c-4.258,8.988-8.324,18.134-13.363,26.723c-12.143,20.711-31.508,42.216-57.604,30.459c-10.669-4.807-17.298-13.732-27.02-19.223
		c-3.063-1.727-19.031,22.988-22.754,28.446c-14.104,20.711-35.339,44.255-62.354,27.327
		c-23.396-14.651-18.375-44.764-37.222-61.943c-9.952-9.072-19.788,15.576-23.366,22.211c-7.975,14.794-15.84,32.504-30,42.496
		c-17.168,12.115-34.122,2.123-46.179-12.058c-10.224-12.025-20.99-17.477-32.605-2.588c-9.301,11.913-15.413,26.521-18.374,41.278
		c-0.14,0.722-0.364,1.368-0.633,1.956v64.607c5.452-7.091,10.725-14.26,20.878-15.27c16.003-1.583,24.917,12.124,34.752,22.356
		c27.938,29.062,47.393-11.421,73.273-20.481c13.349-4.677,26.61-1.04,37.736,7.217c6.929,5.145,13.169,13.412,21.877,15.579
		c10.45,2.594,20.633,1.106,29.593-4.908c14.914-10.024,27.26-22.232,46.523-21.324c17.655,0.832,38.577,9.357,52.332-5.614
		c7.354-8,19.214,3.93,11.887,11.886c-13.2,14.374-29.747,14.719-47.98,12.191c-10.888-1.511-23.462-3.963-33.28,2.472
		c-7.168,4.696-13.667,10.477-20.991,14.907c-14.122,8.546-32.448,12.016-47.904,4.53c-12.194-5.898-25.584-26.074-40.657-22.15
		c-25.433,6.634-38.938,39.453-69.18,32.865c-16.984-3.699-24.572-16.631-36.49-27.754c-13.313-12.434-21.996,8.093-32.369,17.291
		v105.391H410.911z"/>
</g>
<g>
</g>
<g>
</g>
<g>
</g>
<g>
</g>
<g>
</g>
<g>
</g>
<g>
</g>
<g>
</g>
<g>
</g>
<g>
</g>
<g>
</g>
<g>
</g>
<g>
</g>
<g>
</g>
<g>
</g>
</svg>
